<svg xmlns="http://www.w3.org/2000/svg" width="114" height="114.001" viewBox="0 0 114 114.001">
  <g id="Logo_Ari_Connect" data-name="Logo Ari Connect" transform="translate(-115.005 -116.197)">
    <path id="Trazado_43352" data-name="Trazado 43352" d="M156.722,319.076a1.387,1.387,0,0,0,1.022-1.315,1.286,1.286,0,0,0-.851-1.34,1.4,1.4,0,0,0-1.649.7l-.012.027a.269.269,0,0,1-.476-.25,1.846,1.846,0,0,1,.827-.849,1.979,1.979,0,0,0-1-.983,1.5,1.5,0,0,0-1.593.463,1.863,1.863,0,0,0-.312,1.724h0a.269.269,0,0,1-.176.336.274.274,0,0,1-.081.012.27.27,0,0,1-.257-.188,2.448,2.448,0,0,1-.109-.7,1.207,1.207,0,0,0-1.325.784,1.184,1.184,0,0,0,.506,1.559,2.824,2.824,0,0,0,1.153.129h0c.155,0,.3-.007.445,0h2.593a5.461,5.461,0,0,0,1.3-.112Z" transform="translate(-30.826 -172.063)" fill="none"/>
    <g id="Grupo_16228" data-name="Grupo 16228" transform="translate(115.005 116.197)">
      <g id="Grupo_16227" data-name="Grupo 16227" transform="translate(78.128 29.231)">
        <path id="Trazado_43353" data-name="Trazado 43353" d="M841.5,334.629H841.5a3.806,3.806,0,0,0-5.383,5.382,29.97,29.97,0,0,1,0,42.35,3.808,3.808,0,0,0,5.386,5.386,37.606,37.606,0,0,0,0-53.118Z" transform="translate(-816.609 -333.517)" fill="#fff"/>
        <path id="Trazado_43354" data-name="Trazado 43354" d="M769.437,406.643a3.807,3.807,0,1,0-5.382,5.387,16.267,16.267,0,0,1,0,22.971,3.807,3.807,0,0,0,2.7,6.5l-.008-.005a3.8,3.8,0,0,0,2.689-1.114,23.89,23.89,0,0,0,0-33.741Z" transform="translate(-754.242 -395.843)" fill="#fff"/>
        <path id="Trazado_43355" data-name="Trazado 43355" d="M704.777,487.724a11.557,11.557,0,0,0,0-16.325,3.806,3.806,0,0,0-5.383,5.382,3.941,3.941,0,0,1,0,5.563,3.809,3.809,0,0,0,0,5.383l-.005,0a3.814,3.814,0,0,0,5.387,0Z" transform="translate(-698.28 -451.891)" fill="#fff"/>
      </g>
      <path id="Trazado_43356" data-name="Trazado 43356" d="M195.732,199.363h0a15.4,15.4,0,0,0-14.879,11.615H170.375A16.932,16.932,0,0,1,153.595,195.8l6.28,0a50.983,50.983,0,0,0,11.938-1.071c7.1-1.662,12.151-8.027,12.577-15.839.4-7.6-3.77-14.061-10.629-16.458a15.737,15.737,0,0,0-7.829-.589c-2.827-5.308-6.671-8.961-11.172-10.592-.4-.135-.807-.249-1.212-.354a16.938,16.938,0,0,1,16.831-15.67H184l.6,3.47a4.673,4.673,0,0,0,2.149,3.195l6.545,4.041a4.639,4.639,0,0,0,4.884,0l6.547-4.046a4.691,4.691,0,0,0,2.146-3.188l1.753-10.225a4.669,4.669,0,0,0-3.445-5.317l-1.1-.28c1.808-.136,4.508-.295,4.68-.3a3.189,3.189,0,0,0-.389-6.366l-.353.022c-.879.052-3.132.188-4.634.3-2.185.164-4.831.827-5.9,4.538-.012.04-.023.079-.034.12l-.575-.147a4.652,4.652,0,0,0-2.291,0l-.576.147c-.011-.038-.021-.081-.032-.118-1.07-3.718-3.715-4.38-5.9-4.54-1.658-.125-4.913-.324-5.006-.324h0a3.187,3.187,0,0,0-.48,6.355c.009,0,.247.02.63.044.9.055,2.782.169,4.157.27l-1.1.28a4.656,4.656,0,0,0-3.5,4.453H170.377a24.537,24.537,0,0,0-24.409,23.034,17.541,17.541,0,0,0-10.252,6.038,19.636,19.636,0,0,0-3.918,7.856c-7.386-.217-13.03,3.377-15.578,9.939-3.089,7.995-.111,16.484,6.978,19.767a22.807,22.807,0,0,0,8.373,1.6q.581,0,1.164-.03l13.255-.007a24.534,24.534,0,0,0,24.389,22.791h10.478a15.368,15.368,0,1,0,14.879-19.232Zm0-72.03,6.357,1.617-1.355,7.906-5,3.091-5-3.091-1.355-7.906Zm-57.517,46.789a14.441,14.441,0,0,1,2.383-13.305,11.29,11.29,0,0,1,12.026-3.532c3.4,1.236,5.78,4.234,7.272,6.814a16.245,16.245,0,0,0-6.339,6.93,3.187,3.187,0,1,0,5.632,2.985,1.611,1.611,0,0,0,.107-.234,10.493,10.493,0,0,1,12.381-5.317c4.995,1.745,6.555,6.353,6.35,10.085-.214,4.112-2.666,8.786-7.634,9.955a44.446,44.446,0,0,1-10.475.9c-.969,0-23.746-.022-25.011,0l-.539.024c-3.132.052-6.3.044-8.529-.986-4.543-2.1-5.282-7.439-3.662-11.628,1.505-3.9,4.514-5.879,8.949-5.879h.1a21.041,21.041,0,0,0,.91,5.1,3.171,3.171,0,0,0,3.043,2.235h0a3.363,3.363,0,0,0,.945-.144,3.2,3.2,0,0,0,2.083-4Zm57.519,48.469a7.809,7.809,0,1,1,7.783-7.809A7.8,7.8,0,0,1,195.732,222.591Z" transform="translate(-115.005 -116.197)" fill="#fff"/>
    </g>
  </g>
</svg>
